<?xml version="1.0" encoding="UTF-8" standalone="no"?>
<!-- Created with Inkscape (http://www.inkscape.org/) -->

<svg
   width="40.000046mm"
   height="47.81329mm"
   viewBox="0 0 40.000046 47.81329"
   version="1.1"
   id="svg5"
   inkscape:version="1.1.1 (3bf5ae0d25, 2021-09-20)"
   sodipodi:docname="encoder_calibration_01.svg"
   inkscape:export-filename="C:\Projects\Knowledge-Base\docs\img\enc_offset_01.png"
   inkscape:export-xdpi="500"
   inkscape:export-ydpi="500"
   xmlns:inkscape="http://www.inkscape.org/namespaces/inkscape"
   xmlns:sodipodi="http://sodipodi.sourceforge.net/DTD/sodipodi-0.dtd"
   xmlns="http://www.w3.org/2000/svg"
   xmlns:svg="http://www.w3.org/2000/svg">
  <sodipodi:namedview
     id="namedview7"
     pagecolor="#ffffff"
     bordercolor="#111111"
     borderopacity="1"
     inkscape:pageshadow="0"
     inkscape:pageopacity="0"
     inkscape:pagecheckerboard="1"
     inkscape:document-units="mm"
     showgrid="false"
     inkscape:zoom="4.3994184"
     inkscape:cx="-19.548038"
     inkscape:cy="138.99564"
     inkscape:window-width="2560"
     inkscape:window-height="1351"
     inkscape:window-x="2551"
     inkscape:window-y="-9"
     inkscape:window-maximized="1"
     inkscape:current-layer="layer1"
     fit-margin-top="0"
     fit-margin-left="0"
     fit-margin-right="0"
     fit-margin-bottom="0" />
  <defs
     id="defs2">
    <marker
       style="overflow:visible"
       id="marker36391"
       refX="0"
       refY="0"
       orient="auto"
       inkscape:stockid="Arrow2Mstart"
       inkscape:isstock="true">
      <path
         transform="scale(0.6)"
         d="M 8.7185878,4.0337352 -2.2072895,0.01601326 8.7185884,-4.0017078 c -1.7454984,2.3720609 -1.7354408,5.6174519 -6e-7,8.035443 z"
         style="fill:context-stroke;fill-rule:evenodd;stroke:context-stroke;stroke-width:0.625;stroke-linejoin:round"
         id="path36389" />
    </marker>
    <marker
       style="overflow:visible"
       id="marker36381"
       refX="0"
       refY="0"
       orient="auto"
       inkscape:stockid="Arrow2Mend"
       inkscape:isstock="true">
      <path
         transform="scale(-0.6)"
         d="M 8.7185878,4.0337352 -2.2072895,0.01601326 8.7185884,-4.0017078 c -1.7454984,2.3720609 -1.7354408,5.6174519 -6e-7,8.035443 z"
         style="fill:context-stroke;fill-rule:evenodd;stroke:context-stroke;stroke-width:0.625;stroke-linejoin:round"
         id="path36379" />
    </marker>
    <marker
       style="overflow:visible"
       id="Arrow2Lend"
       refX="0"
       refY="0"
       orient="auto"
       inkscape:stockid="Arrow2Lend"
       inkscape:isstock="true">
      <path
         transform="matrix(-1.1,0,0,-1.1,-1.1,0)"
         d="M 8.7185878,4.0337352 -2.2072895,0.01601326 8.7185884,-4.0017078 c -1.7454984,2.3720609 -1.7354408,5.6174519 -6e-7,8.035443 z"
         style="fill:context-stroke;fill-rule:evenodd;stroke:context-stroke;stroke-width:0.625;stroke-linejoin:round"
         id="path1039" />
    </marker>
    <marker
       style="overflow:visible"
       id="Arrow1Send"
       refX="0"
       refY="0"
       orient="auto"
       inkscape:stockid="Arrow1Send"
       inkscape:isstock="true">
      <path
         transform="matrix(-0.2,0,0,-0.2,-1.2,0)"
         style="fill:context-stroke;fill-rule:evenodd;stroke:context-stroke;stroke-width:1pt"
         d="M 0,0 5,-5 -12.5,0 5,5 Z"
         id="path1033" />
    </marker>
    <marker
       style="overflow:visible"
       id="Arrow2Mend"
       refX="0"
       refY="0"
       orient="auto"
       inkscape:stockid="Arrow2Mend"
       inkscape:isstock="true">
      <path
         transform="scale(-0.6)"
         d="M 8.7185878,4.0337352 -2.2072895,0.01601326 8.7185884,-4.0017078 c -1.7454984,2.3720609 -1.7354408,5.6174519 -6e-7,8.035443 z"
         style="fill:context-stroke;fill-rule:evenodd;stroke:context-stroke;stroke-width:0.625;stroke-linejoin:round"
         id="path1045" />
    </marker>
    <marker
       style="overflow:visible"
       id="Arrow1Mstart"
       refX="0"
       refY="0"
       orient="auto"
       inkscape:stockid="Arrow1Mstart"
       inkscape:isstock="true">
      <path
         transform="matrix(0.4,0,0,0.4,4,0)"
         style="fill:context-stroke;fill-rule:evenodd;stroke:context-stroke;stroke-width:1pt"
         d="M 0,0 5,-5 -12.5,0 5,5 Z"
         id="path1024" />
    </marker>
    <marker
       style="overflow:visible"
       id="Arrow2Lstart"
       refX="0"
       refY="0"
       orient="auto"
       inkscape:stockid="Arrow2Lstart"
       inkscape:isstock="true">
      <path
         transform="matrix(1.1,0,0,1.1,1.1,0)"
         d="M 8.7185878,4.0337352 -2.2072895,0.01601326 8.7185884,-4.0017078 c -1.7454984,2.3720609 -1.7354408,5.6174519 -6e-7,8.035443 z"
         style="fill:context-stroke;fill-rule:evenodd;stroke:context-stroke;stroke-width:0.625;stroke-linejoin:round"
         id="path1036" />
    </marker>
    <marker
       style="overflow:visible"
       id="Arrow2Mstart"
       refX="0"
       refY="0"
       orient="auto"
       inkscape:stockid="Arrow2Mstart"
       inkscape:isstock="true">
      <path
         transform="scale(0.6)"
         d="M 8.7185878,4.0337352 -2.2072895,0.01601326 8.7185884,-4.0017078 c -1.7454984,2.3720609 -1.7354408,5.6174519 -6e-7,8.035443 z"
         style="fill:context-stroke;fill-rule:evenodd;stroke:context-stroke;stroke-width:0.625;stroke-linejoin:round"
         id="path1042" />
    </marker>
    <marker
       style="overflow:visible"
       id="Arrow2Lstart-5"
       refX="0"
       refY="0"
       orient="auto"
       inkscape:stockid="Arrow2Lstart"
       inkscape:isstock="true">
      <path
         transform="matrix(1.1,0,0,1.1,1.1,0)"
         d="M 8.7185878,4.0337352 -2.2072895,0.01601326 8.7185884,-4.0017078 c -1.7454984,2.3720609 -1.7354408,5.6174519 -6e-7,8.035443 z"
         style="fill:context-stroke;fill-rule:evenodd;stroke:context-stroke;stroke-width:0.625;stroke-linejoin:round"
         id="path1036-7" />
    </marker>
    <marker
       style="overflow:visible"
       id="Arrow2Lstart-1"
       refX="0"
       refY="0"
       orient="auto"
       inkscape:stockid="Arrow2Lstart"
       inkscape:isstock="true">
      <path
         transform="matrix(1.1,0,0,1.1,1.1,0)"
         d="M 8.7185878,4.0337352 -2.2072895,0.01601326 8.7185884,-4.0017078 c -1.7454984,2.3720609 -1.7354408,5.6174519 -6e-7,8.035443 z"
         style="fill:context-stroke;fill-rule:evenodd;stroke:context-stroke;stroke-width:0.625;stroke-linejoin:round"
         id="path1036-3" />
    </marker>
    <marker
       style="overflow:visible"
       id="Arrow2Mstart-6"
       refX="0"
       refY="0"
       orient="auto"
       inkscape:stockid="Arrow2Mstart"
       inkscape:isstock="true">
      <path
         transform="scale(0.6)"
         d="M 8.7185878,4.0337352 -2.2072895,0.01601326 8.7185884,-4.0017078 c -1.7454984,2.3720609 -1.7354408,5.6174519 -6e-7,8.035443 z"
         style="fill:context-stroke;fill-rule:evenodd;stroke:context-stroke;stroke-width:0.625;stroke-linejoin:round"
         id="path1042-8" />
    </marker>
    <marker
       style="overflow:visible"
       id="marker15326"
       refX="0"
       refY="0"
       orient="auto"
       inkscape:stockid="Arrow2Mstart"
       inkscape:isstock="true">
      <path
         transform="scale(0.6)"
         d="M 8.7185878,4.0337352 -2.2072895,0.01601326 8.7185884,-4.0017078 c -1.7454984,2.3720609 -1.7354408,5.6174519 -6e-7,8.035443 z"
         style="fill:context-stroke;fill-rule:evenodd;stroke:context-stroke;stroke-width:0.625;stroke-linejoin:round"
         id="path15324" />
    </marker>
  </defs>
  <g
     inkscape:label="Ebene 1"
     inkscape:groupmode="layer"
     id="layer1"
     transform="translate(-125.84448,-43.696894)">
    <path
       style="fill:none;stroke:#000000;stroke-width:0.5;stroke-linecap:butt;stroke-linejoin:miter;stroke-miterlimit:4;stroke-dasharray:none;stroke-opacity:1;marker-start:url(#Arrow2Mstart)"
       d="m 145.83735,44.904464 0.12028,26.722898"
       id="path1016"
       sodipodi:nodetypes="cc" />
    <path
       style="fill:none;stroke:#a1a1a1;stroke-width:0.5;stroke-linecap:butt;stroke-linejoin:miter;stroke-miterlimit:4;stroke-dasharray:none;stroke-opacity:1;marker-start:url(#Arrow2Mstart-6)"
       d="m 132.35325,48.498863 13.46561,23.082568"
       id="path1016-7"
       sodipodi:nodetypes="cc" />
    <path
       id="path1973-2"
       style="fill:#a2142f;fill-opacity:1;stroke:#000000;stroke-width:1.8897638;stroke-linejoin:round;stroke-miterlimit:4;stroke-dasharray:none"
       d="m 534.07617,311.67383 -11.41015,27.54687 a 74.626775,74.62701 67.499999 0 0 57.11523,0.002 l -11.41016,-27.54688 a 44.551341,44.551341 0 0 1 -0.0976,0.043 44.551341,44.551341 0 0 1 -2.72852,1.02539 44.551341,44.551341 0 0 1 -2.78906,0.84766 44.551341,44.551341 0 0 1 -2.83984,0.66211 44.551341,44.551341 0 0 1 -2.875,0.47461 44.551341,44.551341 0 0 1 -2.90235,0.28515 44.551341,44.551341 0 0 1 -2.91406,0.0957 44.551341,44.551341 0 0 1 -2.91406,-0.0957 44.551341,44.551341 0 0 1 -2.90039,-0.28515 44.551341,44.551341 0 0 1 -2.87696,-0.47461 44.551341,44.551341 0 0 1 -2.83984,-0.66211 44.551341,44.551341 0 0 1 -2.78906,-0.84766 44.551341,44.551341 0 0 1 -2.72852,-1.02539 44.551341,44.551341 0 0 1 -0.0996,-0.0449 z"
       transform="scale(0.26458333)" />
    <path
       id="path20191"
       style="fill:#0072bd;fill-opacity:1;stroke:#000000;stroke-width:1.8897638;stroke-linejoin:round;stroke-miterlimit:4;stroke-dasharray:none"
       d="m 568.37109,311.67578 11.41016,27.54688 a 74.626775,74.62701 67.499999 0 0 40.38672,-40.38868 l -27.69141,-11.46875 a 44.551341,44.551341 0 0 1 -0.0918,0.24219 44.551341,44.551341 0 0 1 -1.20313,2.6543 44.551341,44.551341 0 0 1 -1.37305,2.57226 44.551341,44.551341 0 0 1 -1.54101,2.47461 44.551341,44.551341 0 0 1 -1.69727,2.3711 44.551341,44.551341 0 0 1 -1.84961,2.25195 44.551341,44.551341 0 0 1 -1.99218,2.12891 44.551341,44.551341 0 0 1 -2.12891,1.99218 44.551341,44.551341 0 0 1 -2.25391,1.84961 44.551341,44.551341 0 0 1 -2.36914,1.69922 44.551341,44.551341 0 0 1 -2.47656,1.53906 44.551341,44.551341 0 0 1 -2.57031,1.375 44.551341,44.551341 0 0 1 -2.5586,1.16016 z"
       transform="scale(0.26458333)" />
    <path
       id="path20189"
       style="fill:#a2142f;fill-opacity:1;stroke:#000000;stroke-width:1.8897638;stroke-linejoin:round;stroke-miterlimit:4;stroke-dasharray:none"
       d="M 510.17188,253.27148 482.2793,241.7168 a 74.626775,74.62701 67.499999 0 0 -0.002,0.002 74.626775,74.62701 67.499999 0 0 -0.002,57.11523 l 27.69727,-11.47265 a 44.551341,44.551341 0 0 1 -0.93555,-2.48242 44.551341,44.551341 0 0 1 -0.8457,-2.79102 44.551341,44.551341 0 0 1 -0.66211,-2.83789 44.551341,44.551341 0 0 1 -0.47461,-2.87695 44.551341,44.551341 0 0 1 -0.28516,-2.90235 44.551341,44.551341 0 0 1 -0.0957,-2.91211 44.551341,44.551341 0 0 1 0.0957,-2.91406 44.551341,44.551341 0 0 1 0.28516,-2.90234 44.551341,44.551341 0 0 1 0.47461,-2.875 44.551341,44.551341 0 0 1 0.66211,-2.83985 44.551341,44.551341 0 0 1 0.8457,-2.79101 44.551341,44.551341 0 0 1 1.02734,-2.72852 44.551341,44.551341 0 0 1 0.10743,-0.23633 z"
       transform="scale(0.26458333)" />
    <path
       id="path20187"
       style="fill:#0072bd;fill-opacity:1;stroke:#000000;stroke-width:1.8897638;stroke-linejoin:round;stroke-miterlimit:4;stroke-dasharray:none"
       d="m 509.97266,287.36133 -27.69727,11.47265 a 74.626775,74.62701 67.499999 0 0 40.38867,40.38868 74.626775,74.62701 67.499999 0 0 0.002,-0.002 l 11.41015,-27.54687 a 44.551341,44.551341 0 0 1 -2.55664,-1.15821 44.551341,44.551341 0 0 1 -2.57031,-1.375 44.551341,44.551341 0 0 1 -2.47656,-1.53906 44.551341,44.551341 0 0 1 -2.36914,-1.69922 44.551341,44.551341 0 0 1 -2.25391,-1.84961 44.551341,44.551341 0 0 1 -2.12695,-1.99218 44.551341,44.551341 0 0 1 -1.99219,-2.12891 44.551341,44.551341 0 0 1 -1.84961,-2.25195 44.551341,44.551341 0 0 1 -1.69922,-2.3711 44.551341,44.551341 0 0 1 -1.53906,-2.47461 44.551341,44.551341 0 0 1 -1.375,-2.57226 44.551341,44.551341 0 0 1 -1.20313,-2.6543 44.551341,44.551341 0 0 1 -0.0918,-0.24609 z"
       transform="scale(0.26458333)" />
    <path
       id="path20185"
       style="fill:#a2142f;fill-opacity:1;stroke:#000000;stroke-width:1.8897638;stroke-linejoin:round;stroke-miterlimit:4;stroke-dasharray:none"
       d="m 592.47656,287.36523 27.69141,11.46875 a 74.626775,74.62701 67.499999 0 0 0.002,0 74.626775,74.62701 67.499999 0 0 0,-57.11718 l -27.88476,11.55078 a 44.551341,44.551341 0 0 1 0.006,0.0137 44.551341,44.551341 0 0 1 0.37109,0.91211 44.551341,44.551341 0 0 1 0.35156,0.92187 44.551341,44.551341 0 0 1 0.33203,0.92774 44.551341,44.551341 0 0 1 0.31055,0.93555 44.551341,44.551341 0 0 1 0.29102,0.9414 44.551341,44.551341 0 0 1 0.26757,0.94922 44.551341,44.551341 0 0 1 0.24805,0.95313 44.551341,44.551341 0 0 1 0.22852,0.95898 44.551341,44.551341 0 0 1 0.20507,0.96484 44.551341,44.551341 0 0 1 0.1836,0.9668 44.551341,44.551341 0 0 1 0.16406,0.97266 44.551341,44.551341 0 0 1 0.14063,0.97656 44.551341,44.551341 0 0 1 0.11914,0.97656 44.551341,44.551341 0 0 1 0.0976,0.98242 44.551341,44.551341 0 0 1 0.0762,0.98243 44.551341,44.551341 0 0 1 0.0547,0.98437 44.551341,44.551341 0 0 1 0.0332,0.98438 44.551341,44.551341 0 0 1 0.0117,0.98632 44.551341,44.551341 0 0 1 -0.0957,2.91211 44.551341,44.551341 0 0 1 -0.28711,2.90235 44.551341,44.551341 0 0 1 -0.47461,2.87695 44.551341,44.551341 0 0 1 -0.66211,2.83789 44.551341,44.551341 0 0 1 -0.8457,2.79102 44.551341,44.551341 0 0 1 -0.93555,2.48632 z"
       transform="scale(0.26458333)" />
    <path
       id="path34620"
       style="fill:#0072bd;fill-opacity:1;stroke:#000000;stroke-width:1.8897638;stroke-linejoin:round;stroke-miterlimit:4;stroke-dasharray:none"
       d="m 579.78125,201.33008 a 74.626775,74.62701 67.499999 0 0 -0.002,0.002 l -11.60938,28.02539 a 44.551341,44.551341 0 0 1 0.56446,0.23438 44.551341,44.551341 0 0 1 0.91601,0.40234 44.551341,44.551341 0 0 1 0.9043,0.42383 44.551341,44.551341 0 0 1 0.89648,0.44336 44.551341,44.551341 0 0 1 0.88477,0.46484 44.551341,44.551341 0 0 1 0.875,0.48438 44.551341,44.551341 0 0 1 0.86523,0.50195 44.551341,44.551341 0 0 1 0.85156,0.52344 44.551341,44.551341 0 0 1 0.83985,0.54101 44.551341,44.551341 0 0 1 0.82812,0.5586 44.551341,44.551341 0 0 1 0.81641,0.58007 44.551341,44.551341 0 0 1 0.80078,0.59571 44.551341,44.551341 0 0 1 0.78906,0.61523 44.551341,44.551341 0 0 1 0.77539,0.63086 44.551341,44.551341 0 0 1 0.75977,0.65039 44.551341,44.551341 0 0 1 0.74609,0.66602 44.551341,44.551341 0 0 1 0.73047,0.68164 44.551341,44.551341 0 0 1 0.71485,0.69922 44.551341,44.551341 0 0 1 0.69726,0.71484 44.551341,44.551341 0 0 1 0.6836,0.73047 44.551341,44.551341 0 0 1 0.66601,0.74609 44.551341,44.551341 0 0 1 0.64844,0.75977 44.551341,44.551341 0 0 1 0.63281,0.77539 44.551341,44.551341 0 0 1 0.61524,0.78711 44.551341,44.551341 0 0 1 0.5957,0.80273 44.551341,44.551341 0 0 1 0.57812,0.81446 44.551341,44.551341 0 0 1 0.56055,0.82812 44.551341,44.551341 0 0 1 0.54102,0.8418 44.551341,44.551341 0 0 1 0.52343,0.85156 44.551341,44.551341 0 0 1 0.50196,0.86524 44.551341,44.551341 0 0 1 0.48437,0.875 44.551341,44.551341 0 0 1 0.46289,0.88476 44.551341,44.551341 0 0 1 0.44531,0.89649 44.551341,44.551341 0 0 1 0.42188,0.90429 44.551341,44.551341 0 0 1 0.4043,0.91602 44.551341,44.551341 0 0 1 0.0918,0.21875 l 27.88672,-11.55078 a 74.626775,74.62701 67.499999 0 0 -40.38867,-40.38672 z"
       transform="scale(0.26458333)" />
    <path
       id="path34638"
       style="fill:#0072bd;fill-opacity:1;stroke:#000000;stroke-width:1.8897638;stroke-linejoin:round;stroke-miterlimit:4;stroke-dasharray:none"
       d="M 522.66406,201.32812 A 74.626775,74.62701 67.499999 0 0 482.2793,241.7168 l 27.89258,11.55468 a 44.551341,44.551341 0 0 1 1.0957,-2.41796 44.551341,44.551341 0 0 1 1.375,-2.57227 44.551341,44.551341 0 0 1 1.53906,-2.47461 44.551341,44.551341 0 0 1 1.69922,-2.36914 44.551341,44.551341 0 0 1 1.84961,-2.25391 44.551341,44.551341 0 0 1 1.99219,-2.1289 44.551341,44.551341 0 0 1 2.12695,-1.99219 44.551341,44.551341 0 0 1 2.25391,-1.84961 44.551341,44.551341 0 0 1 2.36914,-1.69727 44.551341,44.551341 0 0 1 2.47656,-1.54101 44.551341,44.551341 0 0 1 2.57031,-1.37305 44.551341,44.551341 0 0 1 2.65625,-1.20312 44.551341,44.551341 0 0 1 0.0996,-0.0371 z"
       transform="scale(0.26458333)" />
    <path
       id="path34617"
       style="fill:#a2142f;fill-opacity:1;stroke:#000000;stroke-width:1.8897638;stroke-linejoin:round;stroke-miterlimit:4;stroke-dasharray:none"
       d="m 551.22266,195.65039 a 74.626775,74.62701 67.499999 0 0 -28.5586,5.67773 l 11.61133,28.03321 a 44.551341,44.551341 0 0 1 2.62891,-0.99024 44.551341,44.551341 0 0 1 2.78906,-0.8457 44.551341,44.551341 0 0 1 2.83984,-0.66211 44.551341,44.551341 0 0 1 2.87696,-0.47656 44.551341,44.551341 0 0 1 2.90039,-0.28516 44.551341,44.551341 0 0 1 2.91406,-0.0957 44.551341,44.551341 0 0 1 0.98633,0.0117 44.551341,44.551341 0 0 1 0.98437,0.0332 44.551341,44.551341 0 0 1 0.98438,0.0547 44.551341,44.551341 0 0 1 0.98242,0.0762 44.551341,44.551341 0 0 1 0.98047,0.0977 44.551341,44.551341 0 0 1 0.97851,0.11914 44.551341,44.551341 0 0 1 0.97657,0.14062 44.551341,44.551341 0 0 1 0.9707,0.16406 44.551341,44.551341 0 0 1 0.96875,0.1836 44.551341,44.551341 0 0 1 0.96484,0.20508 44.551341,44.551341 0 0 1 0.95899,0.22656 44.551341,44.551341 0 0 1 0.95312,0.24805 44.551341,44.551341 0 0 1 0.94922,0.26953 44.551341,44.551341 0 0 1 0.94141,0.29101 44.551341,44.551341 0 0 1 0.93554,0.31055 44.551341,44.551341 0 0 1 0.92774,0.33203 44.551341,44.551341 0 0 1 0.91992,0.35156 44.551341,44.551341 0 0 1 0.58399,0.23633 l 11.60742,-28.02539 a 74.626775,74.62701 67.499999 0 0 -28.55664,-5.68164 z"
       transform="scale(0.26458333)" />
    <path
       id="path6165"
       style="fill:#0072bd;fill-opacity:1;stroke:#000000;stroke-width:0.5;stroke-linejoin:round;stroke-miterlimit:4;stroke-dasharray:none;stroke-opacity:1"
       d="m 153.44142,67.183359 -14.57206,8.413181 c -0.22357,0.129082 -0.43695,0.25105 -0.631,0.361253 -0.002,0.0013 -0.004,0.0021 -0.006,0.0034 a 8.7805175,8.7805175 0 0 0 0.008,0.01413 8.7805175,8.7805175 0 0 0 11.99417,3.213831 8.7805175,8.7805175 0 0 0 3.21383,-11.994173 8.7805175,8.7805175 0 0 0 -0.007,-0.01164 z" />
    <path
       id="path6424"
       style="fill:#a2142f;fill-opacity:1;stroke:#000000;stroke-width:0.5;stroke-linejoin:round;stroke-miterlimit:4;stroke-dasharray:none;stroke-opacity:1"
       d="m 141.45371,63.980719 a 8.7805175,8.7805175 0 0 0 -3.2488,11.928435 c 0.002,-9.38e-4 0.003,-0.0014 0.004,-0.0023 0.19247,-0.112953 0.40478,-0.236754 0.62836,-0.365836 l 14.57116,-8.412663 a 8.7805175,8.7805175 0 0 0 -11.95478,-3.147666 z" />
    <ellipse
       style="fill:none;fill-opacity:1;stroke:#000000;stroke-width:0.25;stroke-linejoin:round;stroke-miterlimit:4;stroke-dasharray:none;stroke-opacity:1;marker-start:url(#marker36391);marker-end:url(#marker36381)"
       id="path35671"
       sodipodi:type="arc"
       sodipodi:cx="145.84496"
       sodipodi:cy="71.627365"
       sodipodi:rx="24.40823"
       sodipodi:ry="24.416933"
       sodipodi:start="4.3156895"
       sodipodi:end="4.5961684"
       sodipodi:arc-type="arc"
       d="m 136.4142,49.10662 a 24.40823,24.416933 0 0 1 6.6004,-1.731471"
       sodipodi:open="true" />
    <g
       id="g45527"
       transform="matrix(1.4796968,0,0,1.4796968,-64.262026,-15.738469)">
      <path
         style="fill:#b9b9b9;fill-opacity:1;stroke-width:0.0267381"
         d="m 138.19515,41.855834 c 10e-4,-0.03115 0.008,-0.03748 0.0161,-0.01615 0.008,0.0193 0.007,0.04236 -0.002,0.05125 -0.009,0.0089 -0.0152,-0.0069 -0.014,-0.03509 z m -0.13059,-0.398843 c 5.4e-4,-0.04412 0.007,-0.05893 0.0133,-0.03291 0.007,0.02602 0.006,0.06211 -9.9e-4,0.08022 -0.007,0.0181 -0.0129,-0.0032 -0.0123,-0.0473 z m -1.52929,-0.130416 c 0,-0.0056 0.0211,-0.02661 0.0468,-0.04679 0.0424,-0.03326 0.0434,-0.03231 0.0101,0.01009 -0.0349,0.04454 -0.0569,0.0587 -0.0569,0.0367 z"
         id="path45541" />
      <path
         style="fill:#a3a3a3;fill-opacity:1;stroke-width:0.0267381"
         d="m 138.97266,41.711003 c 0,-0.03676 0.006,-0.0518 0.0135,-0.03342 0.007,0.01838 0.007,0.04846 0,0.06685 -0.007,0.01838 -0.0135,0.0033 -0.0135,-0.03342 z"
         id="path45539" />
      <path
         style="fill:#8c8c8c;fill-opacity:1;stroke-width:0.0267381"
         d="m 137.65827,41.914812 c 0,-0.0056 0.0211,-0.02661 0.0468,-0.04679 0.0424,-0.03326 0.0434,-0.03231 0.0101,0.01009 -0.0349,0.04454 -0.0569,0.0587 -0.0569,0.0367 z m 0.72714,-0.511297 c 5.5e-4,-0.04412 0.007,-0.05893 0.0133,-0.03291 0.007,0.02602 0.006,0.06211 -9.9e-4,0.08022 -0.007,0.0181 -0.0129,-0.0032 -0.0123,-0.0473 z"
         id="path45537" />
      <path
         style="fill:#767676;fill-opacity:1;stroke-width:0.0267381"
         d="m 135.2217,41.370092 c -0.0333,-0.04241 -0.0323,-0.04335 0.0101,-0.01009 0.0257,0.02018 0.0468,0.04124 0.0468,0.04679 0,0.02201 -0.022,0.0078 -0.0569,-0.0367 z m 1.28684,-0.230684 c 0,-0.0056 0.0211,-0.02661 0.0468,-0.04679 0.0424,-0.03326 0.0434,-0.03231 0.0101,0.01009 -0.0349,0.04454 -0.0569,0.0587 -0.0569,0.0367 z"
         id="path45535" />
      <path
         style="fill:#606060;fill-opacity:1;stroke-width:0.0267381"
         d="m 137.07525,41.697634 c 5.4e-4,-0.04412 0.007,-0.05893 0.0133,-0.03291 0.007,0.02601 0.006,0.06211 -9.8e-4,0.08021 -0.007,0.0181 -0.0129,-0.0032 -0.0123,-0.0473 z m 0.80214,-0.320857 c 5.5e-4,-0.04412 0.007,-0.05893 0.0133,-0.03291 0.007,0.02602 0.006,0.06211 -9.9e-4,0.08021 -0.007,0.0181 -0.0129,-0.0032 -0.0123,-0.0473 z m -2.01694,-0.0055 c 0.0333,-0.0064 0.0814,-0.0062 0.10695,5.4e-4 0.0256,0.0067 -0.002,0.01192 -0.0605,0.01163 -0.0588,-2.97e-4 -0.0797,-0.0058 -0.0465,-0.01217 z m 2.97641,-0.05016 c 0.001,-0.03115 0.008,-0.03748 0.0162,-0.01615 0.008,0.0193 0.007,0.04236 -0.002,0.05125 -0.009,0.0089 -0.0152,-0.0069 -0.014,-0.03509 z m -1.57966,-0.04797 c 0,-0.0056 0.0211,-0.02661 0.0468,-0.04679 0.0424,-0.03326 0.0434,-0.03231 0.0101,0.01009 -0.0349,0.04454 -0.0569,0.0587 -0.0569,0.0367 z m -2.18524,-0.310762 c 0,-0.06618 0.005,-0.09325 0.0116,-0.06016 0.006,0.03309 0.006,0.08723 0,0.120321 -0.006,0.03309 -0.0116,0.006 -0.0116,-0.06016 z m 1.79037,-0.347595 c 0,-0.05147 0.006,-0.07253 0.0122,-0.04679 0.007,0.02573 0.007,0.06785 0,0.09358 -0.007,0.02574 -0.0122,0.0047 -0.0122,-0.04679 z"
         id="path45533" />
      <path
         style="fill:#494949;fill-opacity:1;stroke-width:0.0267381"
         d="m 136.08073,40.577909 c 0,-0.0056 0.0211,-0.02661 0.0468,-0.04679 0.0424,-0.03326 0.0434,-0.03231 0.0101,0.01009 -0.0349,0.04454 -0.0569,0.0587 -0.0569,0.0367 z m 0.0267,-0.213905 c 0,-0.0056 0.0211,-0.02661 0.0468,-0.04679 0.0424,-0.03326 0.0434,-0.03231 0.0101,0.01009 -0.0349,0.04454 -0.0569,0.0587 -0.0569,0.0367 z"
         id="path45531" />
      <path
         style="fill:#333333;fill-opacity:1;stroke-width:0.0267381"
         d="m 135.47244,42.254794 c -0.0524,-0.02114 -0.0394,-0.135235 0.0468,-0.410101 0.0438,-0.139706 0.0798,-0.261131 0.0799,-0.269833 1.7e-4,-0.0087 -0.0448,-0.02942 -0.1,-0.04604 -0.24504,-0.07384 -0.40775,-0.29981 -0.40775,-0.566266 0,-0.286024 0.20205,-0.748887 0.3269,-0.748887 0.0512,0 0.0517,0.0031 0.01,0.06016 -0.0819,0.111662 -0.20132,0.377106 -0.23264,0.517032 -0.0374,0.166984 -0.0208,0.246177 0.0753,0.3604 0.0655,0.07785 0.29895,0.211233 0.37085,0.211884 0.0159,1.44e-4 0.0671,-0.115508 0.11382,-0.257003 0.12492,-0.378149 0.23446,-0.588667 0.38864,-0.746916 0.2563,-0.26305 0.53234,-0.255033 0.67435,0.01958 0.0313,0.06046 0.0405,0.135574 0.0335,0.27329 -0.0121,0.238983 -0.1046,0.438116 -0.28919,0.6227 -0.17941,0.179413 -0.35565,0.270144 -0.60037,0.309081 -0.13849,0.02203 -0.20649,0.04518 -0.21453,0.07301 -0.006,0.02241 -0.0318,0.152264 -0.0562,0.288565 -0.0342,0.190406 -0.0576,0.256998 -0.10102,0.287434 -0.06,0.042 -0.0657,0.04307 -0.11818,0.02191 z m 0.81203,-0.956796 c 0.28107,-0.127577 0.46471,-0.368411 0.46471,-0.609432 0,-0.320455 -0.35303,-0.40515 -0.61779,-0.148213 -0.16171,0.156936 -0.31331,0.536092 -0.3171,0.793086 -9.2e-4,0.06224 0.003,0.06322 0.16617,0.04516 0.0919,-0.01015 0.22872,-0.04642 0.30401,-0.0806 z m 1.06743,0.767834 c -0.16049,-0.04077 -0.25513,-0.177169 -0.25513,-0.367729 0,-0.313315 0.28469,-0.607757 0.59292,-0.613227 0.29909,-0.0053 0.4587,0.324666 0.30283,0.626087 -0.0737,0.142539 -0.24904,0.290604 -0.39568,0.334153 -0.14011,0.04161 -0.15705,0.04304 -0.24494,0.02072 z m 0.28092,-0.120962 c 0.11349,-0.07648 0.17283,-0.178597 0.22728,-0.391143 0.067,-0.261532 0.006,-0.404309 -0.17255,-0.404124 -0.22362,2.33e-4 -0.3964,0.234452 -0.42368,0.574344 -0.0117,0.14557 -0.006,0.174874 0.0434,0.22431 0.075,0.07498 0.21135,0.07356 0.32553,-0.0034 z m 0.74828,0.106573 c -0.051,-0.01812 -0.11113,-0.06604 -0.13369,-0.106482 -0.0369,-0.0661 -0.0369,-0.08096 1.4e-4,-0.147059 0.0275,-0.04916 0.0629,-0.07353 0.10695,-0.07353 0.0882,0 0.10234,0.09667 0.0247,0.169014 -0.0575,0.05358 -0.0575,0.05367 -0.003,0.08269 0.10281,0.05502 0.2868,0.0354 0.3766,-0.04017 0.11931,-0.100389 0.11485,-0.214014 -0.0104,-0.266369 -0.051,-0.02131 -0.11774,-0.03874 -0.14829,-0.03874 -0.0881,0 -0.18681,-0.117334 -0.18681,-0.222105 0,-0.219072 0.2363,-0.381204 0.45854,-0.314618 0.12834,0.03845 0.18078,0.127788 0.13456,0.229235 -0.0406,0.08922 -0.13855,0.09153 -0.13855,0.0033 0,-0.03496 0.0186,-0.07902 0.0414,-0.09791 0.0571,-0.04742 0.004,-0.07822 -0.13569,-0.07875 -0.14095,-5.36e-4 -0.22654,0.06014 -0.22654,0.160594 0,0.07944 0.0597,0.133115 0.14794,0.133115 0.13981,0 0.27987,0.135969 0.27987,0.271683 0,0.08291 -0.10253,0.248951 -0.183,0.296357 -0.10125,0.05964 -0.29489,0.07869 -0.40434,0.03978 z"
         id="path45529" />
    </g>
  </g>
</svg>
